<?xml version="1.0" encoding="UTF-8"?>
<svg id="Camada_2" data-name="Camada 2" xmlns="http://www.w3.org/2000/svg" viewBox="0 0 55.58 37.94">
  <defs>
    <style>
      .cls-1 {
        fill-rule: evenodd;
      }

      .cls-1, .cls-2 {
        fill: #004f91;
      }
    </style>
  </defs>
  <g id="cdr_layer2">
    <polygon class="cls-1" points="51.37 0 51.35 1.22 51.26 2.42 51.1 3.61 50.9 4.77 50.63 5.92 50.32 7.05 49.95 8.15 49.52 9.22 49.05 10.28 48.53 11.31 47.96 12.29 47.34 13.25 46.68 14.19 45.99 15.09 45.23 15.95 44.46 16.77 43.64 17.57 42.78 18.31 41.89 19.01 40.96 19.68 40 20.29 39.01 20.87 38 21.39 36.96 21.87 35.89 22.3 34.8 22.67 33.67 22.99 32.54 23.26 31.38 23.46 30.19 23.62 29 23.71 27.79 23.75 26.57 23.71 25.38 23.62 24.2 23.46 23.04 23.26 21.91 22.99 20.78 22.67 19.69 22.3 18.62 21.87 17.58 21.39 16.56 20.87 15.57 20.29 14.62 19.68 13.68 19.01 12.8 18.31 11.94 17.57 11.12 16.77 10.33 15.95 9.59 15.09 8.89 14.19 8.24 13.25 7.62 12.29 7.05 11.31 6.53 10.28 6.06 9.22 5.63 8.15 5.26 7.05 4.94 5.92 4.67 4.77 4.47 3.61 4.31 2.42 4.22 1.22 4.2 0 27.79 0 27.79 6.6 32.41 0 34.42 0 27.79 9.57 27.79 11.85 36.03 0 38.11 0 27.79 14.82 27.79 17.1 39.67 0 41.71 0 27.79 20.08 27.79 22.35 43.34 0 51.37 0"/>
    <polygon class="cls-1" points="8.79 33.49 8.78 33.72 8.77 33.94 8.73 34.16 8.7 34.39 8.66 34.6 8.59 34.8 8.52 35.02 8.44 35.22 8.35 35.42 8.26 35.61 8.15 35.79 8.04 35.97 7.91 36.15 7.78 36.32 7.64 36.48 7.5 36.63 7.34 36.79 7.18 36.92 7.01 37.06 6.85 37.18 6.66 37.29 6.48 37.4 6.28 37.5 6.09 37.59 5.89 37.67 5.69 37.74 5.47 37.79 5.26 37.85 5.05 37.88 4.82 37.92 4.6 37.93 4.37 37.94 4.15 37.93 3.92 37.92 3.71 37.88 3.49 37.85 3.28 37.79 3.08 37.74 2.87 37.67 2.67 37.59 2.48 37.5 2.29 37.4 2.11 37.29 1.93 37.18 1.76 37.06 1.59 36.92 1.43 36.79 1.29 36.63 1.14 36.48 1 36.32 .87 36.15 .75 35.97 .64 35.79 .52 35.61 .43 35.42 .34 35.22 .26 35.02 .2 34.8 .13 34.6 .09 34.39 .04 34.16 .02 33.94 0 33.72 0 33.49 0 28.57 1.8 28.57 1.8 33.49 1.8 33.62 1.81 33.75 1.82 33.89 1.84 34.01 1.87 34.14 1.91 34.26 1.95 34.39 2 34.51 2.05 34.62 2.11 34.74 2.18 34.85 2.24 34.95 2.31 35.05 2.39 35.16 2.47 35.26 2.56 35.35 2.65 35.44 2.75 35.52 2.84 35.6 2.94 35.68 3.05 35.74 3.16 35.8 3.27 35.87 3.38 35.91 3.51 35.97 3.62 36.01 3.74 36.04 3.86 36.07 3.99 36.1 4.11 36.12 4.24 36.13 4.37 36.13 4.51 36.13 4.63 36.12 4.76 36.1 4.89 36.07 5.02 36.04 5.15 36.01 5.26 35.97 5.38 35.91 5.5 35.87 5.61 35.8 5.72 35.74 5.83 35.68 5.93 35.6 6.04 35.52 6.13 35.44 6.21 35.35 6.31 35.26 6.38 35.16 6.46 35.05 6.54 34.95 6.61 34.85 6.68 34.74 6.73 34.62 6.79 34.51 6.83 34.39 6.88 34.26 6.91 34.14 6.94 34.01 6.97 33.89 6.98 33.75 6.99 33.62 6.99 33.49 6.99 28.57 8.79 28.57 8.79 33.49"/>
    <polygon class="cls-1" points="18.25 35.69 18.25 28.56 19.99 28.56 19.99 37.81 17.99 37.81 12.91 31.05 12.91 37.81 11.18 37.81 11.18 28.56 12.91 28.56 18.25 35.69"/>
    <rect class="cls-2" x="22.38" y="28.56" width="1.73" height="9.25"/>
    <rect class="cls-2" x="53.84" y="28.56" width="1.74" height="9.25"/>
    <polygon class="cls-1" points="45.77 28.56 47.6 28.56 47.6 36.41 52.15 36.41 52.15 37.81 45.77 37.81 45.77 28.56"/>
    <polygon class="cls-1" points="37.96 28.56 34.33 37.81 36.22 37.81 39.24 30.09 42.25 37.81 44.13 37.81 40.52 28.56 37.96 28.56"/>
    <polygon class="cls-1" points="29.27 37.81 25.65 28.56 27.54 28.56 30.56 36.3 33.57 28.56 35.45 28.56 31.84 37.81 29.27 37.81"/>
  </g>
</svg>